<svg xmlns:dc="http://purl.org/dc/elements/1.1/" xmlns:cc="http://creativecommons.org/ns#" xmlns:rdf="http://www.w3.org/1999/02/22-rdf-syntax-ns#" xmlns:svg="http://www.w3.org/2000/svg" xmlns="http://www.w3.org/2000/svg" xmlns:sodipodi="http://sodipodi.sourceforge.net/DTD/sodipodi-0.dtd" xmlns:inkscape="http://www.inkscape.org/namespaces/inkscape" version="1.1" x="0px" y="0px" viewBox="0 0 431.32101 539.15825" enable-background="new 0 0 595 842" xml:space="preserve"><path style="" d="M 170.422,0 C 147.26,0 125.248,4.667 105.197,12.9639 63.574,30.2492 30.045,63.5747 12.829,105.1972 4.532,125.2485 0,147.2602 0,170.4221 c 0,23.1625 4.459,45.1743 12.829,65.225 8.573,20.8115 21.306,39.4676 37.002,55.2319 15.764,15.7643 34.555,28.4937 55.366,37.1364 20.051,8.2968 42.063,12.8283 65.225,12.8283 13.414,0 26.447,-1.4796 38.892,-4.4523 15.557,-3.6647 28.298,-9.0175 42.402,-16.0705 l 3.243,5.2689 c 0.968,1.4517 2.061,3.0006 3.375,4.5909 1.105,1.4522 2.33,2.8696 3.781,4.3219 l 81.97,81.9689 c 10.025,9.9564 23.123,14.8551 36.191,14.8551 28.348,0 51.045,-22.6986 51.045,-51.0462 0,-13.1357 -4.895,-26.2341 -14.854,-36.1905 l -81.97,-81.9701 c -1.452,-1.4522 -2.938,-2.6758 -4.322,-3.7817 -1.52,-1.2456 -3.139,-2.4069 -4.728,-3.3743 l -5.131,-3.2427 2.704,-5.5385 c 5.738,-11.5466 10.191,-23.8016 13.233,-36.7306 2.904,-12.5146 4.46,-25.5444 4.46,-39.027 0,-23.0932 -4.598,-45.1742 -12.964,-65.2249 C 319.106,84.3892 306.373,65.5282 290.748,49.8331 275.191,34.1381 256.396,21.6095 235.516,12.9663 215.464,4.6694 193.519,0.0029 170.426,0.0029 Z m 0,40.9181 c 34.362,0 67.221,13.4738 91.557,37.8115 24.338,24.3377 37.947,57.3297 37.947,91.6925 0,70.5236 -56.906,129.5047 -129.504,129.5047 -71.907,0 -129.639,-58.3583 -129.639,-129.5047 0,-17.4925 3.567,-34.2801 9.857,-49.5601 6.568,-15.9023 16.127,-30.2406 28.089,-42.1324 24.268,-24.2684 57.261,-37.8115 91.693,-37.8115 z m 0,30.3843 c -45.011,0 -39.838,24.9378 -39.838,55.6358 0,30.6992 21.377,55.6376 39.838,55.6376 18.461,0 39.701,-24.8691 39.701,-55.6376 0,-30.7673 5.31,-55.6358 -39.701,-55.6358 z m 0,122.3474 c -37.544,0.012 -75.083,12.3173 -75.083,37.0008 l 0,18.9052 c 0,3.0425 2.358,5.5384 5.4,5.5384 l 139.228,0 c 3.042,0 5.538,-2.4959 5.538,-5.5384 l 0,-18.9052 c 0,-24.7184 -37.539,-37.0101 -75.082,-37.0008 z" clip-rule="evenodd" fill="#000000" fill-rule="evenodd"/><text x="0" y="446.3266" fill="#000000" font-size="5px" font-weight="bold" font-family="'Helvetica Neue', Helvetica, Arial-Unicode, Arial, Sans-serif">Created by jeff</text><text x="0" y="451.3266" fill="#000000" font-size="5px" font-weight="bold" font-family="'Helvetica Neue', Helvetica, Arial-Unicode, Arial, Sans-serif">from the Noun Project</text></svg>